<svg xmlns="http://www.w3.org/2000/svg" viewBox="0 0 64 64">
  <rect width="64" height="64" rx="14" fill="#FFFFFF"/>
  <rect x="1.5" y="1.5" width="61" height="61" rx="12.5" fill="none" stroke="#0A2A5E" stroke-width="3"/>
  <!-- finder patterns -->
  <rect x="10" y="10" width="16" height="16" rx="2" fill="#0A2A5E"/>
  <rect x="14" y="14" width="8" height="8" rx="1" fill="#FFFFFF"/>
  <rect x="16" y="16" width="4" height="4" fill="#0A2A5E"/>
  <rect x="38" y="10" width="16" height="16" rx="2" fill="#0A2A5E"/>
  <rect x="42" y="14" width="8" height="8" rx="1" fill="#FFFFFF"/>
  <rect x="44" y="16" width="4" height="4" fill="#0A2A5E"/>
  <rect x="10" y="38" width="16" height="16" rx="2" fill="#0A2A5E"/>
  <rect x="14" y="42" width="8" height="8" rx="1" fill="#FFFFFF"/>
  <rect x="16" y="44" width="4" height="4" fill="#0A2A5E"/>
  <!-- data modules -->
  <rect x="30" y="10" width="4" height="4" fill="#0A2A5E"/>
  <rect x="30" y="18" width="4" height="4" fill="#0A2A5E"/>
  <rect x="10" y="30" width="4" height="4" fill="#0A2A5E"/>
  <rect x="18" y="30" width="4" height="4" fill="#0A2A5E"/>
  <rect x="30" y="30" width="4" height="4" fill="#0A2A5E"/>
  <rect x="26" y="26" width="4" height="4" fill="#0A2A5E"/>
  <rect x="38" y="30" width="4" height="4" fill="#0A2A5E"/>
  <rect x="50" y="30" width="4" height="4" fill="#0A2A5E"/>
  <rect x="30" y="38" width="4" height="4" fill="#0A2A5E"/>
  <rect x="30" y="50" width="4" height="4" fill="#0A2A5E"/>
  <!-- Philippine accent modules -->
  <rect x="38" y="38" width="8" height="8" rx="1" fill="#CE1126"/>
  <rect x="46" y="46" width="8" height="8" rx="1" fill="#0038A8"/>
  <rect x="46" y="38" width="4" height="4" fill="#FCD116"/>
  <rect x="38" y="50" width="4" height="4" fill="#FCD116"/>
</svg>
